<svg xmlns="http://www.w3.org/2000/svg" xmlns:xlink="http://www.w3.org/1999/xlink" width="1264" height="467" viewBox="0 0 1264 467">
    <defs>
        <filter id="qetvtol7pa">
            <feColorMatrix in="SourceGraphic" values="0 0 0 0 1.000000 0 0 0 0 1.000000 0 0 0 0 1.000000 0 0 0 1.000000 0"/>
        </filter>
        <path id="jkq50vtbzb" d="M0 0L1264 0 1264 467 0 467z"/>
    </defs>
    <g fill="none" fill-rule="evenodd">
        <g filter="url(#qetvtol7pa)" transform="translate(262 -421)">
            <g transform="translate(-262 421)">
                <mask id="2jib6rr50c" fill="#fff">
                    <use xlink:href="#jkq50vtbzb"/>
                </mask>
                <path fill="#FFF" fill-rule="nonzero" d="M143.185 467c-7.145 0-14.29-.727-21.656-2.423-54.32-12.113-88.848-35.352-119.273-79.668l1.214-1.211c30.237 44.074 64.354 67.07 118.264 79.183 67.003 15.021 127.05-44.558 180.156-97.111l7.76-7.733c27.98-27.62 124.81-113.344 195.881-53.765 7.966 6.542 15.11 15.021 22.067 22.996 10.82 12.356 21.844 25.197 35.946 31.496 35.946 15.97 75.566-15.99 101.923-37.048 55.756-45.043 168.294-123.5 294.13-143.366 56.782-8.964 109.273-4.603 156.039 12.84 52.696 19.605 98.863 56.168 137.065 108.479l-1.23 1.211c-37.997-52.069-83.754-88.39-136.246-107.994-46.765-17.443-99.051-21.804-155.44-12.84-125.614 19.866-237.741 98.08-293.497 142.881-26.562 21.3-66.593 53.503-103.36 37.29-14.306-6.541-25.536-19.382-36.56-31.98-6.94-7.975-14.102-16.212-21.862-22.753-70.25-58.853-166.26 26.145-194.036 53.522l-7.76 7.733C255.33 414.204 202.223 467 143.185 467zm155.44-114.778c3.47-3.391 6.735-6.783 10-10.175 25.126-25.177 63.943-57.641 106.213-69.735 32.886-9.449 62.303-3.876 87.224 15.97 7.76 6.3 14.904 14.052 21.861 21.563 11.23 12.113 22.87 24.934 37.365 31.475 33.501 15.021 68.233-6.3 103.769-31.475 85.172-60.064 177.695-118.412 276.764-139.248 128.878-26.872 233.263 8.48 310.47 105.592l1.009-1.212c-77.618-97.596-182.396-133.19-311.89-106.318-99.274 20.836-191.796 79.426-277.174 139.49-35.125 24.934-69.652 46.012-102.333 31.475-14.29-6.299-25.724-18.877-36.971-30.99-6.94-7.511-14.085-15.506-22.05-21.806-25.331-20.33-55.158-25.903-88.454-16.454-42.475 12.114-81.498 44.8-106.812 70.22-3.282 3.391-6.752 6.783-10.016 10.175-51.671 52.069-110.094 111.143-175.251 99.756-53.107-9.428-87.822-30.99-119.29-74.58L2.052 377.4c31.86 43.831 66.576 65.636 120.298 75.065 5.52.969 11.025 1.453 16.546 1.453 59.038 0 112.35-53.744 159.73-101.695zm-4.29-14.536c4.29-4.361 8.58-8.722 12.666-13.083 25.126-25.419 63.72-58.348 105.598-70.461 31.86-9.207 61.277-3.392 87.018 16.716 7.76 6.057 14.905 13.305 21.845 20.574 11.435 11.871 23.28 23.985 38.202 30.526 35.946 15.97 75.361-8.237 104.162-25.923 12.256-7.51 24.306-15.243 37.177-23.238 71.481-45.043 152.38-95.9 239.177-115.02 128.895-28.104 233.878 3.371 312.521 93.7l1.009-1.212c-78.831-90.55-184.43-122.288-313.735-94.184-87.002 19.12-168.09 70.22-239.588 115.262-12.87 7.995-24.92 15.728-37.176 23.238-28.596 17.686-67.601 41.651-102.932 25.924-14.512-6.542-26.357-18.656-37.587-30.285-6.94-7.248-14.306-14.516-22.066-20.573-26.135-20.351-55.961-26.166-88.232-16.96-42.082 12.115-81.088 45.044-106.214 70.725-4.29 4.34-8.375 8.702-12.665 13.063-50.44 51.584-107.428 109.952-170.346 101.957-51.67-6.3-87.616-27.377-120.297-69.755l-1.231 1.211c32.886 42.863 69.242 63.94 121.118 70.482 3.88.485 7.76.727 11.64.727 59.243 0 112.555-54.734 159.936-103.411zm-4.7-14.032c5.315-5.572 10.426-10.902 15.725-16.232 36.766-37.775 72.113-61.76 104.983-70.946 29.621-8.965 61.277-2.665 87.018 17.181 7.555 5.815 14.905 12.598 21.862 19.382 11.845 11.367 24.1 23.238 39.005 29.78 33.091 14.778 68.422-1.212 104.778-20.331 25.126-13.325 49.637-28.104 75.788-43.832 62.696-37.775 127.443-76.78 200.172-93.72 128.879-29.295 234.682-1.938 314.334 81.606l1.025-1.453c-80.267-83.545-186.48-111.144-315.769-81.606-72.917 16.939-137.87 55.945-200.582 93.72-26.152 15.727-50.663 30.506-75.772 43.831-35.962 18.877-71.088 34.867-103.564 20.33-14.7-6.54-26.75-18.15-38.612-29.536-6.94-6.784-14.29-13.81-22.05-19.625-25.946-20.088-58.217-26.387-88.232-17.423-33.296 9.428-68.849 33.413-105.598 71.43-5.11 5.33-10.426 10.66-15.742 16.233-51.056 53.26-103.752 108.236-164.62 104.117-50.662-3.634-87.018-22.996-121.118-65.131l-1.025 1.211c34.51 42.378 71.071 61.982 122.144 65.616 2.239.243 4.7.243 6.94.243 58.422 0 109.478-53.28 158.91-104.845zm-4.701-14.052c6.136-6.541 12.255-13.083 18.392-19.382 36.56-38.259 71.686-62.224 104.367-71.673 29.622-8.48 58.833-2.422 87.019 17.686 7.555 5.33 14.905 12.094 21.844 18.393 12.05 10.902 24.716 22.29 39.843 29.053 33.485 15.02 68.832 1.696 105.188-14.759 33.69-15.02 65.773-34.14 99.667-54.491 54.953-32.687 111.735-66.585 176.276-82.091 128.879-30.749 235.297-7.268 316.385 69.492l1.025-1.433c-81.702-77.023-188.531-100.504-317.82-69.755-64.542 15.506-121.528 49.404-176.686 82.333-33.895 20.351-65.96 39.228-99.462 54.492-35.946 16.212-71.088 29.295-103.975 14.778-14.904-6.541-27.365-17.928-39.415-28.83-7.145-6.3-14.29-13.063-22.05-18.393-28.596-20.351-58.217-26.408-88.044-17.928-33.091 9.448-68.422 33.656-105.188 71.915-6.136 6.299-12.255 12.84-18.392 19.382-49.414 52.553-100.692 107.025-159.303 106.056-49.842-.727-86.403-18.878-122.144-60.529l-1.025 1.212c35.946 41.893 72.917 60.286 123.17 61.013h1.623c58.628 0 109.478-54.23 158.705-106.54zm-159.525 94.205c57.191-2.423 107.034-56.188 155.03-108.499 6.956-7.51 14.101-15.243 21.04-22.511 36.562-38.744 71.5-62.972 103.77-72.158 28.596-7.995 57.79-1.938 86.796 18.15 7.367 5.088 14.307 11.145 21.657 17.202 12.46 10.64 25.331 21.542 40.646 28.326 34.117 15.263 70.883 3.876 105.598-8.964 40.031-15.001 76.797-37.048 115.615-60.286 49.637-29.8 100.897-60.79 159.918-75.327 60.064-14.759 115.41-18.635 165.047-11.61 57.602 8.238 109.273 31.476 153.389 69.25l.82-1.453c-44.116-38.017-95.787-61.497-153.8-69.735-49.636-7.026-105.392-3.15-165.456 11.872-59.226 14.758-110.692 45.75-160.329 75.55-38.817 23.237-75.378 45.284-115.409 60.285-34.51 12.84-70.866 23.985-104.573 8.964-15.11-6.783-27.98-17.686-40.236-28.083-7.161-6.057-14.306-12.114-21.861-17.444-29.416-20.33-59.02-26.63-88.027-18.393-32.476 9.187-67.619 33.656-104.59 72.642-6.94 7.269-14.084 15.001-21.024 22.512-48.013 51.826-97.428 105.591-154.227 108.014-48.406 1.938-86.386-15.264-123.152-55.945l-1.025 1.21c35.125 38.745 71.48 56.43 116.828 56.43 2.461.243 4.905.243 7.555 0zm.615-12.114c55.158-5.572 103.154-58.61 149.714-109.932 7.982-8.722 15.948-17.686 23.913-26.166 37.16-39.955 70.866-63.678 103.342-72.884 27.382-7.753 56.371-1.454 86.813 18.655 7.35 4.825 14.29 10.398 21.657 16.212 12.853 10.176 26.134 20.836 41.654 27.6 33.707 15.02 70.883 7.268 106.009-3.372 45.552-13.81 85.377-38.037 127.46-63.94 45.551-27.842 92.727-56.673 147.885-70.947 131.322-33.656 236.322-18.655 320.264 45.528l.82-1.454c-84.351-64.667-189.556-79.426-321.494-45.77-55.158 14.274-102.539 43.105-148.09 71.189-42.066 25.66-81.909 50.13-127.255 63.698-34.92 10.397-71.687 18.15-105.188 3.371-15.315-6.763-28.596-17.423-41.262-27.356-7.35-5.815-14.29-11.387-21.64-16.213-30.646-20.35-60.25-26.892-87.838-18.897-32.681 9.206-66.576 33.171-103.958 73.369-7.965 8.48-16.135 17.444-23.895 26.165-46.372 51.08-94.163 104.118-148.706 109.448-47.38 4.846-85.583-10.902-123.973-51.1l-1.025 1.454c34.322 35.836 68.421 52.553 108.863 52.553 4.905-.242 10.426-.484 15.93-1.211zm.82-12.114c53.107-8.722 99.48-61.013 144.21-111.628 8.77-9.933 17.76-20.109 26.75-29.78 37.177-40.44 70.884-64.424 102.745-73.388 26.34-7.49 54.73-1.212 86.608 19.382 7.145 4.603 14.084 9.69 21.434 15.02 13.281 9.914 26.972 19.847 42.697 26.873 35.126 15.748 73.533 9.933 106.624 2.18 50.03-11.629 91.907-38.017 136.228-65.878 42.493-26.63 86.609-54.23 138.895-68.281 131.955-35.11 237.348-23.965 322.316 33.413l.82-1.695c-85.378-57.38-191.18-68.282-323.546-33.172-52.492 14.052-96.608 41.651-139.1 68.523-44.321 27.862-85.993 54.007-135.818 65.637-32.681 7.752-70.883 13.325-105.598-2.18-15.742-7.027-29.211-16.96-42.492-26.873-7.35-5.33-14.29-10.66-21.452-15.263-32.27-20.594-61.072-27.115-87.822-19.382-32.27 9.206-66.182 33.191-103.564 73.873-8.973 9.671-17.964 19.847-26.75 29.78-44.731 50.373-90.898 102.421-143.39 111.143-46.56 7.51-85.172-6.783-124.998-46.496L.615 332.84c33.297 33.414 65.773 48.92 102.744 48.92 7.555-.243 15.52-.727 23.485-2.18zm.82-12.114c51.056-11.609 95.583-63.193 138.895-113.081 9.59-11.145 19.81-22.754 29.605-33.656 37.792-41.409 70.268-65.132 102.333-74.096 25.332-7.026 52.902-.727 86.609 19.846 6.94 4.361 13.69 8.965 20.836 13.81 13.69 9.449 27.775 19.14 43.91 26.388 29.212 13.083 63.124 15.505 107.035 7.995 54.132-9.207 97.222-37.048 143.185-66.585 40.03-25.924 81.702-52.554 131.732-66.606 132.366-36.563 238.58-29.537 324.162 21.563l.615-1.696c-85.993-51.1-192.411-58.126-325.187-21.562-50.235 14.051-91.907 40.681-132.143 66.605-45.757 29.537-88.847 57.379-142.57 66.585-43.705 7.51-77.412 5.088-106.213-7.753-15.93-7.006-30.032-16.939-43.706-26.145-7.145-4.846-13.896-9.691-21.04-13.81-34.118-20.815-61.893-27.114-87.635-19.846-32.27 9.206-64.952 32.687-102.932 74.58-9.81 10.902-20.015 22.511-29.621 33.656-43.09 49.646-87.429 100.988-138.074 112.597-45.142 10.176-85.173-2.887-126.024-41.873l-1.026.707c32.271 30.768 64.132 45.77 98.249 45.77 9.606 0 19.195-1.212 29.006-3.393zm.821-12.093c48.817-14.537 91.702-65.152 133.374-114.05 10.615-12.6 21.656-25.44 32.476-37.553 37.792-42.136 70.063-65.859 101.718-74.58 24.511-6.784 50.252-.727 86.403 20.35 6.735 3.877 13.264 8.238 20.221 12.579 14.29 9.206 29.006 18.655 45.552 25.923 30.63 13.547 65.96 18.15 107.427 13.547 57.602-6.279 101.923-35.836 148.706-66.827 38.185-25.419 77.617-51.585 126.024-65.374 135.202-38.502 238.767-35.594 326.4 9.428l.599-1.675c-87.822-45.043-191.797-48.193-327.204-9.449-48.612 14.032-88.045 40.197-126.435 65.616-46.577 30.991-90.693 60.306-148.09 66.605-41.262 4.583-76.387.243-106.829-13.325-16.34-7.268-31.04-16.717-45.33-25.923-6.956-4.34-13.486-8.702-20.22-12.578-36.561-21.32-62.713-27.377-87.634-20.351-31.86 8.964-64.542 32.929-102.539 75.064-10.82 12.114-21.844 25.197-32.476 37.553-41.261 48.9-84.147 99.272-132.553 113.566-44.116 13.063-84.557 1.212-126.844-37.29L.205 317.84c31.656 28.81 62.303 42.862 94.163 42.862 11.025-.242 22.477-1.938 34.117-5.33zm.804-12.114c46.782-17.201 87.839-66.827 127.664-115.02 11.64-14.052 23.69-28.568 35.536-41.893 38.407-43.105 69.447-66.363 101.12-75.307 26.955-7.51 54.115 2.907 86.386 20.815 6.136 3.392 12.05 7.026 18.597 10.903 15.11 8.964 30.63 18.15 47.996 25.903 33.296 14.779 69.652 21.32 107.837 19.14 61.072-3.15 105.804-33.899 153.201-66.606 36.356-25.176 74.148-51.08 121.119-64.889 85.788-25.176 213.042-53.038 328.23-2.665l.615-1.696c-49.022-21.3-102.334-30.506-163.2-27.841-49.227 2.18-103.343 12.113-165.85 30.506-47.381 13.81-85.173 39.713-121.734 64.89-47.176 32.464-91.702 63.213-152.569 66.362-37.997 2.18-74.148-4.36-107.239-19.14-17.366-7.732-32.886-16.938-47.79-25.902-6.342-3.877-12.461-7.511-18.598-10.903-32.68-18.15-60.046-28.81-87.411-21.058-40.852 11.367-75.789 46.497-101.924 75.792-11.845 13.567-23.895 27.841-35.552 41.893-39.621 47.95-80.677 97.354-127.033 114.536C85.583 357.31 44.937 346.892.82 308.875L0 310.33c31.057 26.872 60.457 40.197 90.283 40.197 12.871 0 25.742-2.422 39.006-7.268zm10.631-17.201c40.441-22.027 77.002-67.07 112.128-110.66 42.902-53.037 87.018-107.75 139.1-122.287 31.245-8.722 63.926 8.964 101.718 29.78 43.91 23.984 93.753 51.341 160.346 51.341 64.336 0 109.068-31.96 156.654-65.858 35.142-24.954 71.293-50.858 117.443-64.91 93.753-28.568 216.102-55.925 330.28-14.516l.411-1.696c-114.589-41.65-237.143-14.052-331.084 14.517-46.372 14.052-82.728 39.955-117.87 65.151-47.382 33.656-91.908 65.616-155.834 65.616-66.388 0-116.025-27.114-159.73-51.1-37.998-20.815-70.679-38.743-102.54-29.779-52.491 14.779-96.812 69.735-139.698 122.773-35.142 43.589-71.498 88.632-111.734 110.416-44.937 24.47-90.283 16.96-138.69-23.238L0 303.061c30.237 24.934 59.243 37.532 87.839 37.532 17.349-.242 34.715-5.088 52.081-14.536z" mask="url(#2jib6rr50c)"/>
            </g>
        </g>
    </g>
</svg>
